<svg width="44" height="33" viewBox="0 0 44 33" fill="none" xmlns="http://www.w3.org/2000/svg">
<path d="M10 0.5C12.5193 0.5 14.8831 2.18709 16.6436 5.0918C18.3984 7.98733 19.5 12.0196 19.5 16.5C19.5 20.9804 18.3984 25.0127 16.6436 27.9082C14.8831 30.8129 12.5193 32.5 10 32.5C7.48073 32.5 5.11688 30.8129 3.35645 27.9082C1.60158 25.0127 0.5 20.9804 0.5 16.5C0.5 12.0196 1.60158 7.98733 3.35645 5.0918C5.11688 2.18709 7.48073 0.5 10 0.5Z" fill="white" stroke="white"/>
<path d="M34 0.5C36.5193 0.5 38.8831 2.18709 40.6436 5.0918C42.3984 7.98733 43.5 12.0196 43.5 16.5C43.5 20.9804 42.3984 25.0127 40.6436 27.9082C38.8831 30.8129 36.5193 32.5 34 32.5C31.4807 32.5 29.1169 30.8129 27.3564 27.9082C25.6016 25.0127 24.5 20.9804 24.5 16.5C24.5 12.0196 25.6016 7.98733 27.3564 5.0918C29.1169 2.18709 31.4807 0.5 34 0.5Z" fill="white" stroke="white"/>
<ellipse cx="13" cy="16.5" rx="7" ry="7.5" fill="white"/>
<ellipse cx="37" cy="16.5" rx="7" ry="7.5" fill="white"/>
<circle cx="37" cy="17" r="6" fill="#0047AB"/>
<circle cx="13" cy="17" r="6" fill="#0047AB"/>
<circle cx="39.5" cy="14.5" r="1.5" fill="white"/>
<circle cx="15.5" cy="14.5" r="1.5" fill="white"/>
</svg>