<svg width="70" height="70" viewBox="0 0 70 70" fill="none" xmlns="http://www.w3.org/2000/svg">
<rect width="70" height="70" rx="10" fill="#0047AB"/>
<path d="M23 11.5C25.5193 11.5 27.8831 13.1871 29.6436 16.0918C31.3984 18.9873 32.5 23.0196 32.5 27.5C32.5 31.9804 31.3984 36.0127 29.6436 38.9082C27.8831 41.8129 25.5193 43.5 23 43.5C20.4807 43.5 18.1169 41.8129 16.3564 38.9082C14.6016 36.0127 13.5 31.9804 13.5 27.5C13.5 23.0196 14.6016 18.9873 16.3564 16.0918C18.1169 13.1871 20.4807 11.5 23 11.5Z" fill="white" stroke="white"/>
<path d="M47 11.5C49.5193 11.5 51.8831 13.1871 53.6436 16.0918C55.3984 18.9873 56.5 23.0196 56.5 27.5C56.5 31.9804 55.3984 36.0127 53.6436 38.9082C51.8831 41.8129 49.5193 43.5 47 43.5C44.4807 43.5 42.1169 41.8129 40.3564 38.9082C38.6016 36.0127 37.5 31.9804 37.5 27.5C37.5 23.0196 38.6016 18.9873 40.3564 16.0918C42.1169 13.1871 44.4807 11.5 47 11.5Z" fill="white" stroke="white"/>
<ellipse cx="26" cy="27.5" rx="7" ry="7.5" fill="white"/>
<ellipse cx="50" cy="27.5" rx="7" ry="7.5" fill="white"/>
<circle cx="50" cy="28" r="6" fill="#0047AB"/>
<circle cx="26" cy="28" r="6" fill="#0047AB"/>
<circle cx="52.5" cy="25.5" r="1.5" fill="white"/>
<circle cx="28.5" cy="25.5" r="1.5" fill="white"/>
<path d="M16.666 47.956V46.22C17.688 46.934 19.172 47.452 21.258 47.55C20.908 47.172 20.614 46.682 20.404 46.164H22.616C22.602 46.276 22.588 46.388 22.588 46.5C22.588 46.724 22.602 47.06 22.826 47.55C24.856 47.424 26.312 46.934 27.32 46.22V47.956H24.59C25.71 48.348 26.424 49.076 26.424 50.21C26.424 51.96 24.702 52.856 21.986 52.856C19.256 52.856 17.548 52.114 17.548 50.21C17.548 49.132 18.304 48.39 19.48 47.956H16.666ZM23.246 59.492H21.552C21.286 58.708 21.104 58.008 20.992 57.266C20.866 56.524 20.838 55.908 20.838 55.502C20.838 55.264 20.852 54.998 20.866 54.732C18.78 54.914 16.764 55.6 15.42 56.496V54.284H28.58V56.496C27.194 55.558 25.08 54.872 22.952 54.718C22.924 55.166 22.91 55.6 22.91 56.034C22.91 56.762 22.924 57.854 23.246 59.492ZM19.634 50.714C19.634 52.058 20.376 52.464 21.412 52.464C23.134 52.464 24.338 51.624 24.338 49.72C24.338 48.404 23.638 47.984 22.574 47.984C20.852 47.984 19.634 48.796 19.634 50.714ZM33.494 46.612C36.42 46.612 37.526 47.69 37.526 49.608C37.526 51.624 35.86 52.884 33.774 52.884C30.848 52.884 29.742 51.806 29.742 49.888C29.742 47.886 31.408 46.612 33.494 46.612ZM40.662 57.028H33.046C33.088 57.7 33.186 58.386 33.298 59.1H33.746C36.182 59.1 39.248 58.596 40.816 57.546V59.492H31.688C31.394 58.666 31.156 57.588 31.044 56.636H38.688C38.702 56.412 38.702 56.174 38.702 55.936C38.702 55.698 38.702 55.166 38.646 54.48H38.086C35.678 54.48 32.584 54.998 31.016 56.048V54.088H40.69C40.732 54.536 40.76 54.984 40.76 55.446C40.76 55.544 40.774 56.118 40.662 57.028ZM33.06 52.464C34.362 52.464 35.566 51.008 35.566 48.544C35.566 47.48 35.104 47.032 34.208 47.032C32.906 47.032 31.702 48.488 31.702 50.952C31.702 52.016 32.164 52.464 33.06 52.464ZM40.69 53.318H38.996C39.192 51.624 39.346 50.042 39.346 48.628C39.346 48.474 39.346 47.858 39.276 46.668H41.362C41.39 47.158 41.404 47.648 41.404 48.11C41.404 49.468 41.348 51.176 40.69 53.318ZM45.002 54.48H54.312C54.326 54.774 54.34 55.068 54.34 55.362C54.34 55.656 54.34 56.286 54.228 57.182C54.102 58.078 53.906 58.89 53.64 59.492H45.674C45.408 58.89 45.212 58.078 45.1 57.182C44.974 56.286 44.974 55.656 44.974 55.362C44.974 55.068 44.988 54.774 45.002 54.48ZM51.12 53.066H44.554C44.288 52.254 44.106 51.386 44.008 50.448C43.91 49.524 43.854 48.67 43.854 47.9C43.854 47.494 43.868 47.074 43.882 46.668H51.12V48.614C49.664 47.648 47.9 47.144 45.94 47.074C45.898 47.676 45.884 48.264 45.884 48.824C45.884 49.622 45.912 50.91 46.178 52.66C48.04 52.548 49.734 52.072 51.12 51.12V53.066ZM47.256 59.086C48.334 59.086 51.148 58.792 52.03 58.456C52.24 57.378 52.268 56.328 52.268 55.642C52.268 55.376 52.268 55.124 52.254 54.872C51.12 54.872 48.04 55.166 47.032 55.502C47.018 55.754 47.018 56.006 47.018 56.272C47.018 56.958 47.046 58.008 47.256 59.086ZM54.27 53.696H52.576C52.772 51.82 52.926 50.28 52.926 48.782C52.926 48.614 52.926 47.998 52.856 46.668H54.942C54.984 47.676 54.984 48.25 54.984 48.432C54.984 48.81 54.97 49.188 54.956 49.552C55.586 49.314 56.132 49.034 56.566 48.74V50.952H54.844C54.732 51.904 54.536 52.8 54.27 53.696Z" fill="white"/>
</svg>
